<mxfile host="app.diagrams.net" modified="2023-05-01T14:36:36.478Z" agent="Mozilla/5.0 (Windows NT 10.0; Win64; x64) AppleWebKit/537.36 (KHTML, like Gecko) Chrome/112.0.0.0 Safari/537.36" etag="c1tgdlDQ3uxUqDSwTIc4" version="21.2.3" type="github">
  <diagram name="Page-1" id="X9KJK2h0lBlVpTysE-k5">
    <mxGraphModel dx="1500" dy="819" grid="1" gridSize="10" guides="1" tooltips="1" connect="1" arrows="1" fold="1" page="1" pageScale="1" pageWidth="850" pageHeight="1100" math="0" shadow="0">
      <root>
        <mxCell id="0" />
        <mxCell id="1" parent="0" />
        <mxCell id="NNgBnr3DAAkgeAS3lMWr-42" value="" style="rounded=0;whiteSpace=wrap;html=1;direction=south;" vertex="1" parent="1">
          <mxGeometry x="208.75" y="150" width="280" height="800" as="geometry" />
        </mxCell>
        <mxCell id="NNgBnr3DAAkgeAS3lMWr-3" value="Administrator" style="shape=umlActor;verticalLabelPosition=bottom;verticalAlign=top;html=1;outlineConnect=0;" vertex="1" parent="1">
          <mxGeometry x="540" y="520" width="30" height="60" as="geometry" />
        </mxCell>
        <mxCell id="NNgBnr3DAAkgeAS3lMWr-4" value="&lt;font style=&quot;font-size: 11px;&quot; face=&quot;Verdana&quot;&gt;Food Ordering System In UTM&lt;/font&gt;" style="text;html=1;align=center;verticalAlign=middle;resizable=0;points=[];autosize=1;strokeColor=none;fillColor=none;" vertex="1" parent="1">
          <mxGeometry x="255" y="160" width="190" height="30" as="geometry" />
        </mxCell>
        <mxCell id="NNgBnr3DAAkgeAS3lMWr-9" value="Customer" style="shape=umlActor;verticalLabelPosition=bottom;verticalAlign=top;html=1;outlineConnect=0;" vertex="1" parent="1">
          <mxGeometry x="140" y="520" width="30" height="60" as="geometry" />
        </mxCell>
        <mxCell id="NNgBnr3DAAkgeAS3lMWr-18" value="Register/Login" style="ellipse;whiteSpace=wrap;html=1;" vertex="1" parent="1">
          <mxGeometry x="288.75" y="190" width="120" height="80" as="geometry" />
        </mxCell>
        <mxCell id="NNgBnr3DAAkgeAS3lMWr-53" style="edgeStyle=orthogonalEdgeStyle;rounded=0;orthogonalLoop=1;jettySize=auto;html=1;exitX=0.5;exitY=1;exitDx=0;exitDy=0;entryX=0.5;entryY=0;entryDx=0;entryDy=0;" edge="1" parent="1" source="NNgBnr3DAAkgeAS3lMWr-19" target="NNgBnr3DAAkgeAS3lMWr-20">
          <mxGeometry relative="1" as="geometry" />
        </mxCell>
        <mxCell id="NNgBnr3DAAkgeAS3lMWr-19" value="Browse menu" style="ellipse;whiteSpace=wrap;html=1;" vertex="1" parent="1">
          <mxGeometry x="288.75" y="290" width="120" height="80" as="geometry" />
        </mxCell>
        <mxCell id="NNgBnr3DAAkgeAS3lMWr-54" style="edgeStyle=orthogonalEdgeStyle;rounded=0;orthogonalLoop=1;jettySize=auto;html=1;exitX=0.5;exitY=1;exitDx=0;exitDy=0;entryX=0.5;entryY=0;entryDx=0;entryDy=0;" edge="1" parent="1" source="NNgBnr3DAAkgeAS3lMWr-20" target="NNgBnr3DAAkgeAS3lMWr-21">
          <mxGeometry relative="1" as="geometry" />
        </mxCell>
        <mxCell id="NNgBnr3DAAkgeAS3lMWr-20" value="Place order" style="ellipse;whiteSpace=wrap;html=1;" vertex="1" parent="1">
          <mxGeometry x="290" y="390" width="120" height="80" as="geometry" />
        </mxCell>
        <mxCell id="NNgBnr3DAAkgeAS3lMWr-21" value="Modify order" style="ellipse;whiteSpace=wrap;html=1;" vertex="1" parent="1">
          <mxGeometry x="290" y="490" width="120" height="80" as="geometry" />
        </mxCell>
        <mxCell id="NNgBnr3DAAkgeAS3lMWr-22" value="Cancel order" style="ellipse;whiteSpace=wrap;html=1;" vertex="1" parent="1">
          <mxGeometry x="288.75" y="580" width="120" height="80" as="geometry" />
        </mxCell>
        <mxCell id="NNgBnr3DAAkgeAS3lMWr-55" style="edgeStyle=orthogonalEdgeStyle;rounded=0;orthogonalLoop=1;jettySize=auto;html=1;exitX=0.5;exitY=0;exitDx=0;exitDy=0;entryX=0.5;entryY=1;entryDx=0;entryDy=0;" edge="1" parent="1" source="NNgBnr3DAAkgeAS3lMWr-23" target="NNgBnr3DAAkgeAS3lMWr-22">
          <mxGeometry relative="1" as="geometry" />
        </mxCell>
        <mxCell id="NNgBnr3DAAkgeAS3lMWr-23" value="View order status" style="ellipse;whiteSpace=wrap;html=1;" vertex="1" parent="1">
          <mxGeometry x="290" y="680" width="120" height="80" as="geometry" />
        </mxCell>
        <mxCell id="NNgBnr3DAAkgeAS3lMWr-24" value="Manage menu" style="ellipse;whiteSpace=wrap;html=1;" vertex="1" parent="1">
          <mxGeometry x="288.75" y="770" width="120" height="80" as="geometry" />
        </mxCell>
        <mxCell id="NNgBnr3DAAkgeAS3lMWr-25" value="Manage orders" style="ellipse;whiteSpace=wrap;html=1;" vertex="1" parent="1">
          <mxGeometry x="288.75" y="860" width="120" height="80" as="geometry" />
        </mxCell>
        <mxCell id="NNgBnr3DAAkgeAS3lMWr-29" value="" style="endArrow=none;html=1;rounded=0;entryX=0;entryY=0.5;entryDx=0;entryDy=0;" edge="1" parent="1" target="NNgBnr3DAAkgeAS3lMWr-18">
          <mxGeometry width="50" height="50" relative="1" as="geometry">
            <mxPoint x="170" y="530" as="sourcePoint" />
            <mxPoint x="230" y="490" as="targetPoint" />
          </mxGeometry>
        </mxCell>
        <mxCell id="NNgBnr3DAAkgeAS3lMWr-31" value="" style="endArrow=none;html=1;rounded=0;exitX=1;exitY=0.5;exitDx=0;exitDy=0;" edge="1" parent="1" source="NNgBnr3DAAkgeAS3lMWr-18">
          <mxGeometry width="50" height="50" relative="1" as="geometry">
            <mxPoint x="490" y="600" as="sourcePoint" />
            <mxPoint x="540" y="550" as="targetPoint" />
          </mxGeometry>
        </mxCell>
        <mxCell id="NNgBnr3DAAkgeAS3lMWr-32" value="" style="endArrow=none;html=1;rounded=0;entryX=0;entryY=0.5;entryDx=0;entryDy=0;" edge="1" parent="1" target="NNgBnr3DAAkgeAS3lMWr-19">
          <mxGeometry width="50" height="50" relative="1" as="geometry">
            <mxPoint x="180" y="540" as="sourcePoint" />
            <mxPoint x="220" y="505" as="targetPoint" />
          </mxGeometry>
        </mxCell>
        <mxCell id="NNgBnr3DAAkgeAS3lMWr-33" value="" style="endArrow=none;html=1;rounded=0;entryX=0;entryY=0.5;entryDx=0;entryDy=0;" edge="1" parent="1" target="NNgBnr3DAAkgeAS3lMWr-20">
          <mxGeometry width="50" height="50" relative="1" as="geometry">
            <mxPoint x="180" y="550" as="sourcePoint" />
            <mxPoint x="230" y="520" as="targetPoint" />
          </mxGeometry>
        </mxCell>
        <mxCell id="NNgBnr3DAAkgeAS3lMWr-34" value="" style="endArrow=none;html=1;rounded=0;entryX=0;entryY=0.5;entryDx=0;entryDy=0;" edge="1" parent="1" target="NNgBnr3DAAkgeAS3lMWr-21">
          <mxGeometry width="50" height="50" relative="1" as="geometry">
            <mxPoint x="190" y="550" as="sourcePoint" />
            <mxPoint x="230" y="530" as="targetPoint" />
          </mxGeometry>
        </mxCell>
        <mxCell id="NNgBnr3DAAkgeAS3lMWr-36" value="" style="endArrow=none;html=1;rounded=0;entryX=0;entryY=0.5;entryDx=0;entryDy=0;" edge="1" parent="1" target="NNgBnr3DAAkgeAS3lMWr-22">
          <mxGeometry width="50" height="50" relative="1" as="geometry">
            <mxPoint x="180" y="560" as="sourcePoint" />
            <mxPoint x="240" y="560" as="targetPoint" />
          </mxGeometry>
        </mxCell>
        <mxCell id="NNgBnr3DAAkgeAS3lMWr-38" value="" style="endArrow=none;html=1;rounded=0;entryX=0;entryY=0.5;entryDx=0;entryDy=0;" edge="1" parent="1" target="NNgBnr3DAAkgeAS3lMWr-23">
          <mxGeometry width="50" height="50" relative="1" as="geometry">
            <mxPoint x="190" y="570" as="sourcePoint" />
            <mxPoint x="200" y="610" as="targetPoint" />
          </mxGeometry>
        </mxCell>
        <mxCell id="NNgBnr3DAAkgeAS3lMWr-40" value="" style="endArrow=none;html=1;rounded=0;exitX=1;exitY=0.5;exitDx=0;exitDy=0;" edge="1" parent="1" source="NNgBnr3DAAkgeAS3lMWr-24">
          <mxGeometry width="50" height="50" relative="1" as="geometry">
            <mxPoint x="460" y="710" as="sourcePoint" />
            <mxPoint x="530" y="560" as="targetPoint" />
          </mxGeometry>
        </mxCell>
        <mxCell id="NNgBnr3DAAkgeAS3lMWr-41" value="" style="endArrow=none;html=1;rounded=0;exitX=1;exitY=0.5;exitDx=0;exitDy=0;" edge="1" parent="1" source="NNgBnr3DAAkgeAS3lMWr-25">
          <mxGeometry width="50" height="50" relative="1" as="geometry">
            <mxPoint x="470" y="780" as="sourcePoint" />
            <mxPoint x="530" y="570" as="targetPoint" />
          </mxGeometry>
        </mxCell>
        <mxCell id="NNgBnr3DAAkgeAS3lMWr-44" style="edgeStyle=orthogonalEdgeStyle;rounded=0;orthogonalLoop=1;jettySize=auto;html=1;exitX=1;exitY=0.5;exitDx=0;exitDy=0;" edge="1" parent="1" source="NNgBnr3DAAkgeAS3lMWr-42" target="NNgBnr3DAAkgeAS3lMWr-42">
          <mxGeometry relative="1" as="geometry" />
        </mxCell>
      </root>
    </mxGraphModel>
  </diagram>
</mxfile>
